<svg width="668" height="664" viewBox="0 0 668 664" fill="none" xmlns="http://www.w3.org/2000/svg">
<path d="M373.357 327.353C360.023 327.353 348.023 320.02 342.357 308.02L294.023 211.686L280.023 237.686C272.357 252.019 257.023 261.019 240.69 261.019H216.357C202.69 261.019 191.357 249.686 191.357 236.019C191.357 222.353 202.69 211.019 216.357 211.019H237.69L264.023 162.353C270.357 151.019 283.023 143.353 295.023 144.019C308.023 144.019 319.69 151.686 325.69 163.019L373.357 258.353L384.69 235.353C392.357 220.019 407.357 210.686 424.69 210.686H451.69C465.357 210.686 476.69 222.019 476.69 235.686C476.69 249.353 465.357 260.686 451.69 260.686H428.023L404.357 307.687C398.357 320.02 386.69 327.353 373.357 327.353Z" fill="url(#paint0_linear_13_77)"/>
<path d="M25.6607 553.693C11.994 553.693 0.660669 542.36 0.660669 528.693V338.693C-1.006 248.359 32.6607 163.026 95.3273 99.026C157.994 35.3594 241.994 0.359375 332.327 0.359375C516.993 0.359375 667.327 150.693 667.327 335.36V525.36C667.327 539.027 655.993 550.36 642.327 550.36C628.66 550.36 617.327 539.027 617.327 525.36V335.36C617.327 178.359 489.66 50.3594 332.327 50.3594C255.327 50.3594 183.994 80.026 130.994 134.026C77.6607 188.359 49.3273 260.693 50.6607 338.027V528.36C50.6607 542.36 39.6607 553.693 25.6607 553.693Z" fill="url(#paint1_linear_13_77)"/>
<path d="M132 346.973H127.667C57.6667 346.973 0.666687 403.973 0.666687 473.973V536.64C0.666687 606.64 57.6667 663.64 127.667 663.64H132C202 663.64 259 606.64 259 536.64V473.973C259 403.973 202 346.973 132 346.973Z" fill="url(#paint2_linear_13_77)"/>
<path d="M540.333 346.973H536C466 346.973 409 403.973 409 473.973V536.64C409 606.64 466 663.64 536 663.64H540.333C610.333 663.64 667.333 606.64 667.333 536.64V473.973C667.333 403.973 610.333 346.973 540.333 346.973Z" fill="url(#paint3_linear_13_77)"/>
<defs>
<linearGradient id="paint0_linear_13_77" x1="334.023" y1="143.979" x2="334.023" y2="327.353" gradientUnits="userSpaceOnUse">
<stop stop-color="#22C45E"/>
<stop offset="1" stop-color="#105E2D"/>
</linearGradient>
<linearGradient id="paint1_linear_13_77" x1="333.964" y1="0.359375" x2="333.964" y2="553.693" gradientUnits="userSpaceOnUse">
<stop stop-color="#22C45E"/>
<stop offset="1" stop-color="#105E2D"/>
</linearGradient>
<linearGradient id="paint2_linear_13_77" x1="129.833" y1="346.973" x2="129.833" y2="663.64" gradientUnits="userSpaceOnUse">
<stop stop-color="#22C45E"/>
<stop offset="1" stop-color="#105E2D"/>
</linearGradient>
<linearGradient id="paint3_linear_13_77" x1="538.167" y1="346.973" x2="538.167" y2="663.64" gradientUnits="userSpaceOnUse">
<stop stop-color="#22C45E"/>
<stop offset="1" stop-color="#105E2D"/>
</linearGradient>
</defs>
</svg>
