<svg width="718" height="525" viewBox="0 0 718 525" fill="none" xmlns="http://www.w3.org/2000/svg">
<path fill-rule="evenodd" clip-rule="evenodd" d="M141.23 7.40232C150.983 17.1753 150.967 33.0043 141.194 42.7577C85.2406 98.6 50.6666 175.739 50.6666 261C50.6666 347.26 86.0543 425.207 143.168 481.197C153.027 490.863 153.185 506.69 143.519 516.55C133.854 526.41 118.025 526.567 108.166 516.9C41.8546 451.897 0.666626 361.237 0.666626 261C0.666626 161.928 40.907 72.2053 105.874 7.36732C115.647 -2.38601 131.476 -2.37034 141.23 7.40232ZM579.547 9.81533C589.407 0.149659 605.233 0.306994 614.9 10.1667C678.237 74.7753 717.333 163.348 717.333 261C717.333 359.817 677.303 449.33 612.633 514.127C602.88 523.9 587.05 523.917 577.28 514.163C567.507 504.41 567.49 488.58 577.243 478.807C632.94 423 667.333 346.04 667.333 261C667.333 176.958 633.74 100.81 579.197 45.169C569.53 35.3093 569.687 19.481 579.547 9.81533ZM235.974 110.586C245.409 120.667 244.884 136.487 234.803 145.922C203.172 175.521 184 216.007 184 260.407C184 305.323 203.623 346.243 235.919 375.93C246.084 385.273 246.749 401.087 237.405 411.253C228.062 421.417 212.246 422.083 202.081 412.74C160.322 374.353 134 320.413 134 260.407C134 201.1 159.716 147.709 200.639 109.414C210.72 99.9797 226.54 100.504 235.974 110.586ZM483.763 111.853C493.307 101.875 509.13 101.524 519.11 111.067C559.017 149.238 584 201.953 584 260.407C584 319.56 558.417 372.827 517.68 411.1C507.62 420.557 491.797 420.063 482.343 410C472.89 399.937 473.383 384.117 483.443 374.663C514.927 345.083 534 304.693 534 260.407C534 216.64 515.37 176.682 484.547 147.2C474.57 137.656 474.22 121.831 483.763 111.853Z" fill="#22C45E"/>
<path d="M414.21 209.373C444.07 231.293 459 242.253 459 261.003C459 279.75 444.07 290.71 414.21 312.633C405.97 318.683 397.793 324.38 390.28 329.13C383.69 333.293 376.227 337.603 368.497 341.833C338.71 358.137 323.813 366.287 310.457 357.263C297.097 348.237 295.883 329.343 293.457 291.557C292.77 280.87 292.333 270.393 292.333 261.003C292.333 251.61 292.77 241.133 293.457 230.447C295.883 192.661 297.097 173.767 310.457 164.742C323.813 155.717 338.71 163.868 368.497 180.172C376.227 184.401 383.69 188.71 390.28 192.875C397.793 197.623 405.97 203.32 414.21 209.373Z" fill="#22C45E"/>
</svg>
